<svg width="316" xmlns="http://www.w3.org/2000/svg" height="316" viewBox="-30 -29 316 316" fill="none"><g data-testid="Group"><g data-testid="shooting-target-color-icon" filter="url(#a)" style="fill: rgb(0, 0, 0);"><defs><filter id="a" x="-.117" y="-.117" width="1.234" height="1.234" filterUnits="objectBoundingBox" color-interpolation-filters="sRGB"><feFlood flood-opacity="0" result="BackgroundImageFix"/><feColorMatrix in="SourceAlpha" values="0 0 0 0 0 0 0 0 0 0 0 0 0 0 0 0 0 0 127 0"/><feMorphology radius="1" operator="dilate" in="SourceAlpha" result="filter_492eb26a-c049-80d7-8004-e2fe983d2c13"/><feOffset/><feGaussianBlur stdDeviation="2"/><feColorMatrix values="0 0 0 0 0 0 0 0 0 0 0 0 0 0 0 0 0 0 0.2 0"/><feBlend in2="BackgroundImageFix" result="filter_492eb26a-c049-80d7-8004-e2fe983d2c13"/><feBlend in="SourceGraphic" in2="filter_492eb26a-c049-80d7-8004-e2fe983d2c13" result="shape"/></filter></defs><path d="M250.692 123.693a5.308 5.308 0 0 1 0 10.616h-88.406c.266-1.731.403-3.504.403-5.308 0-1.805-.137-3.578-.403-5.308h88.406ZM142.861 24.26c23.264 3.27 44.097 14.109 59.933 29.946 15.837 15.836 26.676 36.67 29.946 59.933h-10.734c-3.188-20.327-12.809-38.521-26.717-52.428-13.907-13.907-32.101-23.528-52.428-26.717V24.26Zm89.879 119.602c-3.272 23.263-14.109 44.098-29.946 59.934-15.835 15.835-36.669 26.674-59.933 29.946v-10.736c20.327-3.188 38.522-12.81 52.428-26.716 13.908-13.906 23.529-32.1 26.717-52.428h10.734Zm-119.602 89.879c-23.263-3.271-44.098-14.11-59.933-29.945-15.837-15.836-26.674-36.671-29.945-59.934h10.734c3.188 20.328 12.809 38.522 26.716 52.428 13.906 13.906 32.101 23.528 52.428 26.716v10.735ZM23.259 114.139c3.27-23.263 14.109-44.097 29.946-59.933 15.835-15.837 36.67-26.674 59.933-29.945v10.733c-20.327 3.189-38.521 12.81-52.428 26.717-13.907 13.907-23.528 32.101-26.716 52.428H23.259Zm119.602-53.736c13.414 2.892 25.403 9.619 34.759 18.977 9.359 9.357 16.085 21.345 18.978 34.759h-10.907c-2.692-10.477-8.161-19.838-15.576-27.253-7.415-7.416-16.777-12.884-27.254-15.575V60.403Zm53.737 83.459c-2.893 13.414-9.619 25.403-18.978 34.76-9.356 9.357-21.345 16.083-34.759 18.977v-10.907c10.476-2.692 19.839-8.161 27.254-15.576 7.415-7.415 12.884-16.777 15.576-27.254h10.907Zm-83.46 53.737c-13.414-2.894-25.402-9.62-34.759-18.977-9.357-9.357-16.084-21.346-18.978-34.76h10.907c2.692 10.477 8.162 19.839 15.577 27.254 7.414 7.415 16.777 12.884 27.253 15.576v10.907Zm-53.737-83.46c2.894-13.414 9.621-25.402 18.978-34.759 9.357-9.358 21.345-16.085 34.759-18.977v10.908a59.474 59.474 0 0 0-27.253 15.575C78.47 94.301 73 103.663 70.308 114.139H59.401Zm73.907 49.148v88.406a5.308 5.308 0 0 1-10.616 0v-88.406c1.731.266 3.503.404 5.308.404 1.804 0 3.577-.138 5.308-.404Zm-39.594-28.978H5.308a5.309 5.309 0 0 1 0-10.616h88.406a34.793 34.793 0 0 0-.404 5.308c0 1.804.138 3.577.404 5.308Zm28.978-39.594V6.308a5.308 5.308 0 0 1 10.616 0v88.407a34.813 34.813 0 0 0-5.308-.404c-1.805 0-3.577.138-5.308.404Z" text-rendering="geometricPrecision" image-rendering="optimizeQuality" clip-rule="evenodd" shape-rendering="geometricPrecision" style="fill: rgb(51, 51, 51);" class="fills" data-testid="svg-path"/><path d="M128 103.864c13.882 0 25.136 11.254 25.136 25.137 0 13.882-11.254 25.136-25.136 25.136-13.883 0-25.136-11.254-25.136-25.136 0-13.883 11.253-25.137 25.136-25.137Z" text-rendering="geometricPrecision" image-rendering="optimizeQuality" fill-rule="evenodd" clip-rule="evenodd" shape-rendering="geometricPrecision" style="fill: rgb(229, 39, 58);" class="fills" data-testid="svg-path"/></g><g data-testid="Rectangle"><defs><filter id="b" x="-2.455" y="-.202" width="7" height="1.494" filterUnits="objectBoundingBox" color-interpolation-filters="sRGB"><feFlood flood-opacity="0" result="BackgroundImageFix"/><feColorMatrix in="SourceAlpha" values="0 0 0 0 0 0 0 0 0 0 0 0 0 0 0 0 0 0 127 0"/><feOffset dx="4" dy="4"/><feGaussianBlur stdDeviation="2"/><feColorMatrix values="0 0 0 0 0 0 0 0 0 0 0 0 0 0 0 0 0 0 0.2 0"/><feBlend in2="BackgroundImageFix" result="filter_492eb26a-c049-80d7-8004-e2fe9228c8cf"/><feBlend in="SourceGraphic" in2="filter_492eb26a-c049-80d7-8004-e2fe9228c8cf" result="shape"/></filter></defs><rect width="11" height="133.5" x="122.5" style="fill: rgb(177, 178, 181); fill-opacity: 1;" ry="5.5" rx="5.5" filter="url(#b)" class="fills"/></g><g data-testid="Rectangle"><defs><filter id="c" x="-2.455" y="-.213" width="7" height="1.52" filterUnits="objectBoundingBox" color-interpolation-filters="sRGB"><feFlood flood-opacity="0" result="BackgroundImageFix"/><feColorMatrix in="SourceAlpha" values="0 0 0 0 0 0 0 0 0 0 0 0 0 0 0 0 0 0 127 0"/><feOffset dx="4" dy="4"/><feGaussianBlur stdDeviation="2"/><feColorMatrix values="0 0 0 0 0 0 0 0 0 0 0 0 0 0 0 0 0 0 0.2 0"/><feBlend in2="BackgroundImageFix" result="filter_492eb26a-c049-80d7-8004-e2fe8fa746df"/><feBlend in="SourceGraphic" in2="filter_492eb26a-c049-80d7-8004-e2fe8fa746df" result="shape"/></filter></defs><rect width="11" height="127" x="174.562" transform="rotate(115.805 180.062 154.094)" style="fill: rgb(177, 178, 181); fill-opacity: 1;" ry="5.5" rx="5.5" filter="url(#c)" y="90.594" class="fills"/></g><g data-testid="Rectangle"><defs><filter id="d" x="-5.4" y="-.203" width="14.2" height="1.496" filterUnits="objectBoundingBox" color-interpolation-filters="sRGB"><feFlood flood-opacity="0" result="BackgroundImageFix"/><feColorMatrix in="SourceAlpha" values="0 0 0 0 0 0 0 0 0 0 0 0 0 0 0 0 0 0 127 0"/><feOffset dx="4" dy="4"/><feGaussianBlur stdDeviation="2"/><feColorMatrix values="0 0 0 0 0 0 0 0 0 0 0 0 0 0 0 0 0 0 0.2 0"/><feBlend in2="BackgroundImageFix" result="filter_492eb26a-c049-80d7-8004-e2fe893d2acf"/><feBlend in="SourceGraphic" in2="filter_492eb26a-c049-80d7-8004-e2fe893d2acf" result="shape"/></filter></defs><rect width="5" height="133" x="76.186" transform="rotate(50.193 78.686 169.494)" style="fill: rgb(229, 39, 58); fill-opacity: 1;" ry="2.5" rx="2.5" filter="url(#d)" y="102.994" class="fills"/></g></g></svg>